<?xml version="1.0" encoding="UTF-8"?>
<svg width="526px" height="462px" viewBox="0 0 526 462" version="1.1" xmlns="http://www.w3.org/2000/svg" xmlns:xlink="http://www.w3.org/1999/xlink">
    <!-- Generator: Sketch 46.2 (44496) - http://www.bohemiancoding.com/sketch -->
    <title>Mirror Cabinet</title>
    <desc>Created with Sketch.</desc>
    <defs>
        <rect id="path-1" x="33" y="-5.68434189e-14" width="246" height="435" rx="42"></rect>
        <rect id="path-2" x="279" y="2.84217094e-14" width="246" height="435" rx="42"></rect>
        <rect id="path-3" x="246" y="27" width="246" height="435" rx="42"></rect>
        <rect id="path-4" x="0" y="27" width="246" height="435" rx="42"></rect>
    </defs>
    <g id="Page-1" stroke="none" stroke-width="1" fill="none" fill-rule="evenodd">
        <g id="Desktop" transform="translate(-380.000000, -181.000000)">
            <g id="Mirror-Cabinet" transform="translate(380.000000, 181.000000)">
                <g id="Rectangle-Copy-3" transform="translate(156.000000, 217.500000) rotate(180.000000) translate(-156.000000, -217.500000) ">
                    <use fill-opacity="0.41" fill="#D48989" fill-rule="evenodd" xlink:href="#path-1"></use>
                    <rect stroke="#D78EA2" stroke-width="9" x="37.5" y="4.5" width="237" height="426" rx="42"></rect>
                </g>
                <g id="Rectangle-Copy-4" transform="translate(402.000000, 217.500000) rotate(180.000000) translate(-402.000000, -217.500000) ">
                    <use fill-opacity="0.410750679" fill="#D48989" fill-rule="evenodd" xlink:href="#path-2"></use>
                    <rect stroke="#D78EA2" stroke-width="9" x="283.5" y="4.5" width="237" height="426" rx="42"></rect>
                </g>
                <path d="M223.5,450.5 L260.5,422.5" id="Line-2-Copy-5" stroke="#D78EA2" stroke-width="9" stroke-linecap="square"></path>
                <path d="M483.5,40.5 L506.5,21.5" id="Line-2" stroke="#D78EA2" stroke-width="13" stroke-linecap="square"></path>
                <path d="M486.5,62.5 L517,30" id="Line-2-Copy-6" stroke="#D78EA2" stroke-width="5" stroke-linecap="square"></path>
                <path d="M466,35 L498,10" id="Line-2-Copy-7" stroke="#D78EA2" stroke-width="5" stroke-linecap="square"></path>
                <path d="M214,32 L246,7" id="Line-2-Copy-12" stroke="#D78EA2" stroke-width="5" stroke-linecap="square"></path>
                <path d="M455,31 L487,6" id="Line-2-Copy-8" stroke="#D78EA2" stroke-width="3" stroke-linecap="square"></path>
                <path d="M203,28 L235,3" id="Line-2-Copy-13" stroke="#D78EA2" stroke-width="3" stroke-linecap="square"></path>
                <path d="M445,29 L477,4" id="Line-2-Copy-10" stroke="#D78EA2" stroke-width="1.5" stroke-linecap="square"></path>
                <path d="M193,26 L225,1" id="Line-2-Copy-14" stroke="#D78EA2" stroke-width="1.5" stroke-linecap="square"></path>
                <path d="M491.5,75.5 L523,40" id="Line-2-Copy-9" stroke="#D78EA2" stroke-width="3" stroke-linecap="square"></path>
                <path d="M234.5,60.5 L266,25" id="Line-2-Copy-11" stroke="#D78EA2" stroke-width="3" stroke-linecap="square"></path>
                <path d="M234.5,36.5 L257.5,17.5" id="Line-2-Copy" stroke="#D78EA2" stroke-width="13" stroke-linecap="square"></path>
                <path d="M18.5,40.5 L55.5,10.5" id="Line-2-Copy-2" stroke="#D78EA2" stroke-width="9" stroke-linecap="square"></path>
                <path d="M261.5,44.5 L296.5,13.5" id="Line-2-Copy-3" stroke="#D78EA2" stroke-width="9" stroke-linecap="square"></path>
                <path d="M464.5,453.5 L501.5,425.5" id="Line-2-Copy-4" stroke="#D78EA2" stroke-width="9" stroke-linecap="square"></path>
                <g id="Rectangle-Copy">
                    <use fill-opacity="0.777202219" fill="#CF8484" fill-rule="evenodd" xlink:href="#path-3"></use>
                    <rect stroke="#D78EA2" stroke-width="9" x="250.5" y="31.5" width="237" height="426" rx="42"></rect>
                </g>
                <g id="Rectangle-Copy-2" transform="translate(123.000000, 244.500000) rotate(180.000000) translate(-123.000000, -244.500000) ">
                    <use fill-opacity="0.777202219" fill="#CF8484" fill-rule="evenodd" xlink:href="#path-4"></use>
                    <rect stroke="#D78EA2" stroke-width="9" x="4.5" y="31.5" width="237" height="426" rx="42"></rect>
                </g>
                <path d="M359.5,61.5 L470.5,201.5" id="Line" stroke="#F3BAC9" stroke-width="2" stroke-linecap="square"></path>
                <path d="M33,287 L131.161644,410.807478" id="Line-Copy-4" stroke="#F3BAC9" stroke-width="2" stroke-linecap="square"></path>
                <path d="M359,92 L458.192964,217.108243" id="Line-Copy" stroke="#F3BAC9" stroke-width="2" stroke-linecap="square"></path>
                <path d="M26,318 L110.903611,425.085636" id="Line-Copy-5" stroke="#F3BAC9" stroke-width="2" stroke-linecap="square"></path>
                <path d="M346,115 L408.127623,193.359164" id="Line-Copy-3" stroke="#F3BAC9" stroke-width="2" stroke-linecap="square"></path>
                <path d="M26,357 L88.1276225,435.359164" id="Line-Copy-6" stroke="#F3BAC9" stroke-width="2" stroke-linecap="square"></path>
                <path d="M384,53 L446.127623,131.359164" id="Line-Copy-2" stroke="#F3BAC9" stroke-width="2" stroke-linecap="square"></path>
                <path d="M70,294 L132.127623,372.359164" id="Line-Copy-7" stroke="#F3BAC9" stroke-width="2" stroke-linecap="square"></path>
            </g>
        </g>
    </g>
</svg>